<svg width="332" height="55" viewBox="0 0 332 55" fill="none" xmlns="http://www.w3.org/2000/svg">
<path d="M14.976 14.08C18.6453 14.08 21.5893 15.104 23.808 17.152C26.0693 19.2 27.2 22.1227 27.2 25.92V46.72H24V26.944C24 23.5733 23.1467 21.056 21.44 19.392C19.776 17.6853 17.5147 16.832 14.656 16.832C12.608 16.832 10.7093 17.3227 8.96 18.304C7.21067 19.2427 5.80267 20.608 4.736 22.4C3.712 24.192 3.2 26.2827 3.2 28.672V46.72H0V0H3.2V21.056C4.224 18.7947 5.76 17.0667 7.808 15.872C9.89867 14.6773 12.288 14.08 14.976 14.08Z" fill="white"/>
<path d="M64.874 29.952C64.874 30.6773 64.8313 31.3813 64.746 32.064H39.338C39.5513 35.9893 40.7033 39.0613 42.794 41.28C44.9273 43.456 47.7647 44.544 51.306 44.544C53.8233 44.544 55.978 44.032 57.77 43.008C59.6047 41.984 60.9273 40.5333 61.738 38.656L64.426 40.064C63.2313 42.4107 61.5247 44.224 59.306 45.504C57.0873 46.7413 54.4207 47.36 51.306 47.36C46.57 47.36 42.858 45.888 40.17 42.944C37.5247 40 36.202 35.9253 36.202 30.72C36.202 25.5147 37.482 21.44 40.042 18.496C42.6447 15.552 46.2713 14.08 50.922 14.08C55.274 14.08 58.6873 15.5307 61.162 18.432C63.6367 21.3333 64.874 25.1733 64.874 29.952ZM50.922 16.896C47.466 16.896 44.7353 17.984 42.73 20.16C40.7247 22.2933 39.594 25.3013 39.338 29.184H61.866C61.6527 25.344 60.586 22.336 58.666 20.16C56.7887 17.984 54.2073 16.896 50.922 16.896Z" fill="white"/>
<path d="M76.944 38.976C76.944 40.9387 77.2427 42.3253 77.84 43.136C78.48 43.9467 79.5253 44.352 80.976 44.352C81.8293 44.352 82.5547 44.288 83.152 44.16C83.7493 44.032 84.432 43.7973 85.2 43.456L84.752 46.528C83.5573 47.0827 82.1493 47.36 80.528 47.36C78.224 47.36 76.5173 46.72 75.408 45.44C74.2987 44.1173 73.744 42.0693 73.744 39.296V0H76.944V38.976Z" fill="white"/>
<path d="M94.5065 38.976C94.5065 40.9387 94.8052 42.3253 95.4025 43.136C96.0425 43.9467 97.0878 44.352 98.5385 44.352C99.3918 44.352 100.117 44.288 100.715 44.16C101.312 44.032 101.994 43.7973 102.762 43.456L102.314 46.528C101.12 47.0827 99.7118 47.36 98.0905 47.36C95.7865 47.36 94.0798 46.72 92.9705 45.44C91.8612 44.1173 91.3065 42.0693 91.3065 39.296V0H94.5065V38.976Z" fill="white"/>
<path d="M122.059 14.08C126.795 14.08 130.507 15.5733 133.195 18.56C135.926 21.504 137.291 25.5573 137.291 30.72C137.291 35.8827 135.926 39.9573 133.195 42.944C130.507 45.888 126.795 47.36 122.059 47.36C117.323 47.36 113.59 45.888 110.859 42.944C108.171 39.9573 106.827 35.8827 106.827 30.72C106.827 25.5573 108.171 21.504 110.859 18.56C113.59 15.5733 117.323 14.08 122.059 14.08ZM122.059 16.832C118.304 16.832 115.36 18.0693 113.227 20.544C111.094 23.0187 110.027 26.4107 110.027 30.72C110.027 35.0293 111.094 38.4213 113.227 40.896C115.36 43.3707 118.304 44.608 122.059 44.608C125.814 44.608 128.758 43.3707 130.891 40.896C133.024 38.4213 134.091 35.0293 134.091 30.72C134.091 26.4107 133.024 23.0187 130.891 20.544C128.758 18.0693 125.814 16.832 122.059 16.832Z" fill="white"/>
<path d="M146.596 41.472C147.705 41.472 148.558 41.8987 149.156 42.752C149.796 43.6053 150.115 44.736 150.115 46.144C150.115 47.936 149.646 49.6213 148.708 51.2C147.769 52.7787 146.404 54.016 144.611 54.912L142.82 53.312C144.313 52.7573 145.529 51.8187 146.467 50.496C147.449 49.1733 147.897 47.8933 147.812 46.656L147.62 46.592C147.321 47.0187 146.83 47.232 146.148 47.232C145.508 47.232 144.931 46.976 144.419 46.464C143.908 45.952 143.652 45.2693 143.652 44.416C143.652 43.6053 143.929 42.9227 144.484 42.368C145.081 41.7707 145.785 41.472 146.596 41.472Z" fill="white"/>
<path d="M198.707 12.992H184.947V46.72H173.939V12.992H160.115V4.48001H198.707V12.992Z" fill="#EDF046"/>
<path d="M228.68 46.72H215.752L200.712 4.48001H212.296L220.04 30.016L222.344 38.336L224.584 30.144L232.456 4.48001H243.656L228.68 46.72Z" fill="#EDF046"/>
<path d="M266.607 4.48001C273.221 4.48001 278.277 6.31468 281.775 9.98401C285.317 13.6107 287.087 18.816 287.087 25.6C287.087 32.384 285.317 37.6107 281.775 41.28C278.277 44.9067 273.221 46.72 266.607 46.72H248.687V4.48001H266.607ZM265.519 38.4C269.061 38.4 271.663 37.3333 273.327 35.2C274.991 33.0667 275.823 29.8667 275.823 25.6C275.823 21.3333 274.991 18.1333 273.327 16C271.663 13.8667 269.061 12.8 265.519 12.8H259.695V38.4H265.519Z" fill="#EDF046"/>
<path d="M294.625 4.48001H315.169C325.324 4.52268 330.401 8.32001 330.401 15.872C330.401 18.3467 329.676 20.4373 328.225 22.144C326.774 23.8507 324.641 24.9173 321.825 25.344V25.408C324.982 25.8347 327.372 26.944 328.993 28.736C330.657 30.4853 331.489 32.6827 331.489 35.328C331.489 38.9973 330.188 41.8133 327.585 43.776C324.982 45.7387 321.164 46.72 316.129 46.72H294.625V4.48001ZM313.185 21.76C317.153 21.76 319.137 20.224 319.137 17.152C319.137 14.08 317.153 12.544 313.185 12.544H305.249V21.76H313.185ZM314.273 38.976C316.236 38.976 317.708 38.5707 318.689 37.76C319.713 36.9493 320.225 35.776 320.225 34.24C320.225 32.7467 319.713 31.616 318.689 30.848C317.708 30.0373 316.236 29.632 314.273 29.632H305.249V38.976H314.273Z" fill="#EDF046"/>
</svg>
